<?xml version="1.0" encoding="UTF-8" standalone="no"?>
<svg
   xmlns:dc="http://purl.org/dc/elements/1.1/"
   xmlns:cc="http://creativecommons.org/ns#"
   xmlns:rdf="http://www.w3.org/1999/02/22-rdf-syntax-ns#"
   xmlns:svg="http://www.w3.org/2000/svg"
   xmlns="http://www.w3.org/2000/svg"
   id="svg8"
   version="1.1"
   viewBox="0 0 77.965294 17.597315"
   height="17.597315mm"
   width="77.965294mm">
  <defs
     id="defs2" />
  <metadata
     id="metadata5">
    <rdf:RDF>
      <cc:Work
         rdf:about="">
        <dc:format>image/svg+xml</dc:format>
        <dc:type
           rdf:resource="http://purl.org/dc/dcmitype/StillImage" />
        <dc:title></dc:title>
      </cc:Work>
    </rdf:RDF>
  </metadata>
  <g
     transform="translate(-48.112536,-100.52205)"
     id="layer1">
    <g
       id="text817"
       style="font-style:normal;font-variant:normal;font-weight:normal;font-stretch:normal;font-size:4.93888855px;line-height:0.25;font-family:'Times New Roman Cyr';-inkscape-font-specification:'Times New Roman Cyr';letter-spacing:0px;word-spacing:0px;stroke-width:0.26458332"
       aria-label="Wits End">
      <path
         id="path848"
         style="font-style:normal;font-variant:normal;font-weight:normal;font-stretch:normal;font-size:25.39999962px;font-family:'American Horror Story';-inkscape-font-specification:'American Horror Story';stroke-width:0.26458332"
         d="m 57.053336,108.25635 1.9558,-7.4676 h -2.0066 l -0.9398,4.2418 -0.9398,-4.2418 h -2.159 l 2.0574,7.7724 -1.3716,5.3594 -3.3782,-13.1318 h -2.159 l 4.4704,16.9418 h 1.9558 l 1.4478,-6.1976 1.4478,6.1976 h 1.9558 l 4.4704,-16.9418 h -2.0066 l -3.3528,13.1318 z" />
      <path
         id="path850"
         style="font-style:normal;font-variant:normal;font-weight:normal;font-stretch:normal;font-size:25.39999962px;font-family:'American Horror Story';-inkscape-font-specification:'American Horror Story';stroke-width:0.26458332"
         d="m 64.437591,101.77935 v -1.016 h 1.9812 1.9812 v 1.016 0.9906 h -0.4826 -0.508 v 6.477 6.4516 h 0.508 0.4826 v 1.016 0.9906 h -1.9812 -1.9812 v -0.9906 -1.016 h 0.4826 0.508 v -6.4516 -6.477 h -0.508 -0.4826 z" />
      <path
         id="path852"
         style="font-style:normal;font-variant:normal;font-weight:normal;font-stretch:normal;font-size:25.39999962px;font-family:'American Horror Story';-inkscape-font-specification:'American Horror Story';stroke-width:0.26458332"
         d="m 75.576682,102.64295 h 4.064 v -1.8542 h -10.1854 v 1.8542 h 4.064 v 15.0876 h 2.0574 z" />
      <path
         id="path854"
         style="font-style:normal;font-variant:normal;font-weight:normal;font-stretch:normal;font-size:25.39999962px;font-family:'American Horror Story';-inkscape-font-specification:'American Horror Story';stroke-width:0.26458332"
         d="m 82.902995,100.63635 q 0.4826,-0.1524 1.3716,-0.1016 0.9144,0.0508 1.1938,0.254 0.0762,0.0762 0,0.381 -0.0508,0.2794 -0.3556,1.4478 l -0.0508,0.254 -0.2032,-0.127 q -0.4064,-0.3048 -0.9652,-0.3048 -0.5334,-0.0254 -0.6858,0.254 -0.127,0.2794 0.2286,0.6858 0.3556,0.4064 1.3716,1.1938 1.9812,1.4986 2.921,2.9464 0.9398,1.4224 1.143,3.2004 0.1016,1.016 -0.1016,2.159 -0.2032,1.1176 -0.6604,2.032 -0.3302,0.6604 -0.8636,1.27 -0.5334,0.6096 -1.1938,1.0668 -0.635,0.4318 -1.27,0.635 -0.889,0.2794 -1.9812,0.2286 -1.0922,-0.0254 -2.0574,-0.381 -0.3302,-0.1016 -0.7366,-0.3048 -0.4064,-0.2286 -0.508,-0.3556 -0.0508,-0.0762 0.4064,-0.9144 0.4572,-0.8382 0.4826,-0.889 0.0508,-0.0254 0.254,0.127 0.508,0.381 1.4732,0.5842 0.9652,0.1778 1.651,0 1.7526,-0.4064 2.5654,-2.1336 0.4318,-0.9144 0.4826,-1.9304 0.0762,-1.8288 -0.762,-3.2004 -0.4064,-0.635 -0.889,-1.1176 -0.4826,-0.4826 -1.5494,-1.3462 -1.397,-1.0922 -1.7272,-1.4986 -0.9398,-1.0414 -0.8128,-2.159 0.1016,-0.7874 0.6096,-1.27 0.508,-0.4572 1.2192,-0.6858 z" />
      <path
         id="path856"
         style="font-style:normal;font-variant:normal;font-weight:normal;font-stretch:normal;font-size:25.39999962px;font-family:'American Horror Story';-inkscape-font-specification:'American Horror Story';stroke-width:0.26458332"
         d="m 97.013883,109.27235 v -8.4836 h 2.1844 2.184397 v 1.016 0.9906 h -1.143 -1.142997 v 0.762 0.762 h 1.803397 1.8288 v 0.9906 1.016 h -1.8288 -1.803397 v 4.699 4.699 h 2.108197 2.1336 v 1.016 0.9906 h -3.1496 -3.174997 z" />
      <path
         id="path858"
         style="font-style:normal;font-variant:normal;font-weight:normal;font-stretch:normal;font-size:25.39999962px;font-family:'American Horror Story';-inkscape-font-specification:'American Horror Story';stroke-width:0.26458332"
         d="m 107.41876,104.67495 5.4356,7.8994 v 5.1562 h 1.9812 v -16.9418 h -1.9812 v 8.2042 l -5.6896,-8.2042 h -1.7272 v 16.9418 h 1.9812 z" />
      <path
         id="path860"
         style="font-style:normal;font-variant:normal;font-weight:normal;font-stretch:normal;font-size:25.39999962px;font-family:'American Horror Story';-inkscape-font-specification:'American Horror Story';stroke-width:0.26458332"
         d="m 119.06743,102.84615 v 12.9032 q 2.413,-0.3048 3.7338,-2.6416 1.3462,-2.3622 1.3462,-5.2832 0,-2.3622 -1.2192,-3.6576 -1.2192,-1.3208 -3.8608,-1.3208 z m 6.604,1.9304 q 0.2032,0.4318 0.3048,1.1938 0.1016,0.7366 0.1016,1.5748 0,1.1176 -0.1778,2.2606 -0.1524,1.1176 -0.5588,2.413 -0.4064,1.2954 -1.7018,2.794 -1.2954,1.4986 -3.175,2.1844 l -1.4986,0.3302 q -0.9144,0.2032 -1.4478,0.2032 -0.2286,0 -0.2286,-0.0508 v -16.8656 q 2.1336,0 3.6068,0.2286 1.4732,0.2286 2.7432,1.0922 1.2954,0.8382 2.032,2.6416 z" />
    </g>
    <flowRoot
       style="font-style:normal;font-variant:normal;font-weight:normal;font-stretch:normal;font-size:18.66666603px;line-height:0.25;font-family:'Times New Roman Cyr';-inkscape-font-specification:'Times New Roman Cyr';letter-spacing:0px;word-spacing:0px"
       id="flowRoot838"
       xml:space="preserve"><flowRegion
         id="flowRegion840"><rect
           y="380.2446"
           x="314.86829"
           height="40.705406"
           width="10.774961"
           id="rect842" /></flowRegion><flowPara
         id="flowPara844"></flowPara></flowRoot>  </g>
</svg>
